<svg width="22" height="22" viewBox="0 0 22 22" fill="none" xmlns="http://www.w3.org/2000/svg">
<path d="M5.17064 16.6885C4.98728 16.6518 4.8406 16.6152 4.65724 16.5418C4.47388 16.4685 4.3272 16.4318 4.18051 16.3585C3.85047 16.2118 3.5571 16.0284 3.26373 15.8084C2.677 15.405 2.20027 14.855 1.83356 14.1949C1.46685 13.5715 1.24682 12.838 1.21015 12.1413C1.17348 11.7746 1.21015 11.4445 1.24682 11.0778C1.28349 10.8945 1.32016 10.7478 1.35683 10.5644C1.3935 10.3811 1.46685 10.2344 1.50352 10.051L1.54019 10.5644C1.54019 10.7478 1.57686 10.8945 1.61353 11.0778C1.6502 11.4079 1.72355 11.7379 1.79689 12.0313C1.94357 12.6547 2.1636 13.2414 2.49364 13.7915C2.82368 14.3416 3.19039 14.855 3.66712 15.3317C3.88714 15.5517 4.14384 15.7717 4.40054 15.9918C4.51055 16.1018 4.65724 16.2118 4.80392 16.3218L5.17064 16.6885ZM5.06062 18.0087C4.95061 18.082 4.80392 18.1187 4.65724 18.1554C4.51055 18.192 4.40054 18.2287 4.25386 18.2287C3.99716 18.2654 3.70379 18.302 3.41042 18.2654C2.86035 18.2287 2.27361 18.082 1.79689 17.8253C1.28349 17.5686 0.843437 17.1652 0.550068 16.6885C0.403383 16.4685 0.256698 16.2118 0.146685 15.9551C0.110014 15.8451 0.0733423 15.6984 0.0366711 15.5517C0.0366711 15.4417 0 15.3317 0 15.185C0.110014 15.295 0.183356 15.405 0.256698 15.4784C0.366712 15.5884 0.440054 15.6984 0.513397 15.7717C0.696752 15.9551 0.843437 16.1384 1.02679 16.2851C1.3935 16.6152 1.76022 16.9085 2.20027 17.1286C2.60365 17.3486 3.08038 17.5319 3.52043 17.6786C3.74046 17.752 3.99716 17.7886 4.25386 17.862C4.36387 17.8987 4.51055 17.8987 4.62057 17.9353C4.80392 17.972 4.91394 17.972 5.06062 18.0087ZM13.3483 0.18648C13.5317 0.223151 13.6783 0.296493 13.8617 0.369836C14.0451 0.443178 14.1917 0.51652 14.3384 0.589863C14.6685 0.773218 14.9618 0.956574 15.2552 1.1766C15.8419 1.61666 16.3187 2.20339 16.6487 2.86348C16.9788 3.52356 17.1621 4.25698 17.1621 4.95373C17.1621 5.32044 17.1254 5.65048 17.0521 6.0172C17.0154 6.20055 16.9788 6.34724 16.9054 6.53059C16.8321 6.71395 16.7954 6.86063 16.7221 7.00732L16.6854 6.49392C16.6854 6.31057 16.6854 6.16388 16.6487 5.98053L16.5387 4.9904C16.4287 4.36699 16.2087 3.74358 15.9153 3.15684C15.6219 2.57011 15.2552 2.05671 14.8152 1.57998C14.5951 1.32329 14.3384 1.10326 14.1184 0.846561C14.0084 0.736547 13.8617 0.626534 13.715 0.51652L13.3483 0.18648ZM16.5387 0.0397949C16.6854 0.0764661 16.7954 0.113137 16.9054 0.18648C17.0154 0.223151 17.1621 0.296493 17.2721 0.369836C17.4922 0.51652 17.7122 0.663205 17.9322 0.846561C18.3356 1.21327 18.6656 1.65333 18.849 2.16672C19.069 2.68012 19.1424 3.23019 19.069 3.78026C19.0323 4.03695 18.959 4.29365 18.8857 4.55035C18.849 4.66036 18.7756 4.80705 18.739 4.91706C18.6656 5.02707 18.629 5.13709 18.5189 5.2471V4.88039V4.51368C18.5189 4.25698 18.4823 4.03695 18.4823 3.81693C18.4089 3.3402 18.3356 2.90015 18.1522 2.49676C17.9689 2.05671 17.7488 1.69 17.4922 1.28662C17.3455 1.10326 17.1988 0.883232 17.0521 0.699876C16.9788 0.589863 16.9054 0.51652 16.7954 0.406507C16.7221 0.223151 16.612 0.113137 16.5387 0.0397949Z" fill="#42ADE2"/>
<path d="M2.9337 5.50381C2.20028 5.83385 1.94358 6.71396 2.27362 7.44738L6.89419 17.0919L9.46117 15.8818L4.8406 6.20056C4.51056 5.46714 3.66713 5.1371 2.9337 5.50381ZM15.0719 13.1681L17.7855 11.8846L12.5049 0.883243C12.1382 0.14982 11.2581 -0.180221 10.488 0.186491C9.75454 0.553202 9.4245 1.43331 9.79121 2.20341L15.0719 13.1681Z" fill="#FFDD67"/>
<path d="M10.5245 0.14981C10.4511 0.186481 10.3778 0.223152 10.3044 0.296495C11.0012 0.113139 11.7346 0.44318 12.0647 1.10326L17.3453 12.1046L17.822 11.8846L12.5414 0.883234C12.1747 0.113139 11.2946 -0.216902 10.5245 0.14981Z" fill="#EBA352"/>
<path d="M9.46113 15.845L12.2848 14.4882L6.89414 3.26678C6.52743 2.49668 5.57398 2.12997 4.80389 2.49668C4.03379 2.86339 3.70375 3.81684 4.07046 4.58694L9.46113 15.845Z" fill="#FFDD67"/>
<path d="M4.80401 2.53344C4.73067 2.57011 4.65733 2.60678 4.58398 2.68012C5.28074 2.49677 6.0875 2.82681 6.41754 3.52356L9.75462 10.5278L10.5614 11.0045L6.89427 3.30353C6.52756 2.49677 5.61078 2.16673 4.80401 2.53344Z" fill="#EBA352"/>
<path d="M11.8447 13.6081L14.6684 12.2513L9.27769 1.02993C8.91098 0.259833 7.95753 -0.106879 7.18743 0.296504C6.41734 0.663215 6.0873 1.61667 6.45401 2.38676L11.8447 13.6081Z" fill="#FFDD67"/>
<path d="M7.18751 0.259877C7.11416 0.296548 7.04082 0.369891 6.96748 0.406562C7.66423 0.223206 8.471 0.553247 8.80104 1.25L12.5782 9.17097L13.3849 9.6477L9.27776 1.02997C8.91105 0.223206 7.9576 -0.106835 7.18751 0.259877ZM2.93365 5.50385C2.86031 5.54053 2.78697 5.5772 2.71362 5.65054C3.3737 5.46718 4.07046 5.79722 4.36383 6.45731L7.11416 12.2147L7.92093 12.6914L4.84055 6.23728C4.51051 5.46718 3.66707 5.13714 2.93365 5.50385Z" fill="#EBA352"/>
<path d="M21.5624 4.40359C20.5723 3.63349 18.9588 4.47693 18.152 7.11725C17.6019 8.95081 17.5286 9.50088 16.3551 10.0509L15.695 8.69412C15.695 8.69412 5.2804 13.7181 5.68379 14.5248C5.68379 14.5248 6.93061 18.412 9.05753 20.2089C12.2113 22.9225 19.5822 20.0255 19.9122 13.0213C20.0956 8.95081 22.6259 5.24702 21.5624 4.40359Z" fill="#FFDD67"/>
<path d="M21.5626 4.40367C21.3792 4.25699 21.1592 4.18364 20.9392 4.14697C20.9759 4.18364 21.0492 4.18364 21.0859 4.22031C22.186 5.06375 21.0492 7.00732 20.4258 8.76754C19.9124 10.161 19.4723 11.5912 19.5457 12.9847C19.8391 19.0721 13.715 21.9692 10.0479 20.869C13.6416 22.3725 20.3158 19.5122 20.0224 13.1681C19.9491 11.7746 20.3525 10.4177 20.9025 8.9509C21.4893 7.19068 22.6261 5.24711 21.5626 4.40367Z" fill="#EBA352"/>
<path d="M16.6855 9.9043C14.4119 10.161 11.0748 13.4247 13.4217 16.9818C11.6982 13.3881 14.5219 10.9678 16.3188 10.1243C16.5021 9.97764 16.6855 9.9043 16.6855 9.9043Z" fill="#EBA352"/>
</svg>
