<svg width="24" height="24" viewBox="0 0 24 24" fill="none" xmlns="http://www.w3.org/2000/svg">
<path d="M20.9478 10.7858L5.11206 2.55946C4.84561 2.42106 4.53997 2.36139 4.23599 2.38844C3.93201 2.41548 3.64416 2.52794 3.41092 2.7108C3.17769 2.89366 3.01017 3.13819 2.93076 3.41173C2.85135 3.68527 2.86382 3.97477 2.96652 4.24155L5.68564 11.3042H12.7499C12.9489 11.3042 13.1396 11.3775 13.2803 11.508C13.4209 11.6384 13.4999 11.8154 13.4999 11.9999C13.4999 12.1844 13.4209 12.3614 13.2803 12.4919C13.1396 12.6224 12.9489 12.6957 12.7499 12.6957H5.68564L2.96652 19.7583C2.88614 19.9682 2.86113 20.193 2.89359 20.4137C2.92606 20.6345 3.01505 20.8448 3.15311 21.0271C3.29118 21.2094 3.47431 21.3584 3.68718 21.4615C3.90004 21.5647 4.13645 21.6191 4.37662 21.6201C4.63435 21.6197 4.88763 21.5578 5.11215 21.4404L20.9478 13.2141C21.1804 13.0932 21.3741 12.917 21.5089 12.7036C21.6438 12.4902 21.7149 12.2473 21.7149 11.9999C21.7149 11.7526 21.6438 11.5097 21.509 11.2963C21.3742 11.0829 21.1805 10.9067 20.9478 10.7858Z" fill="url(#paint0_linear_410_634)"/>
<defs>
<linearGradient id="paint0_linear_410_634" x1="21.7149" y1="2.38209" x2="2.22466" y2="3.06974" gradientUnits="userSpaceOnUse">
<stop offset="0.0512263" stop-color="#F44336"/>
<stop offset="0.71875" stop-color="#611B16"/>
<stop offset="1" stop-color="#230A08"/>
</linearGradient>
</defs>
</svg>
