<svg width="293" height="105" viewBox="0 0 293 105" fill="none" xmlns="http://www.w3.org/2000/svg">
<path d="M52 26.8L82 10.5187V43.0813L52 26.8Z" fill="#DB3A2E"/>
<path d="M50 80.5L12.5 100.852V60.1484L50 80.5Z" fill="#D9D9D9"/>
<path d="M99 80.5L136.5 60.1484V100.852L99 80.5Z" fill="#D9D9D9"/>
<path d="M236.886 63.9665L249.637 60.9432L246.37 73.0097L236.886 63.9665Z" fill="#D9D9D9"/>
<path d="M195.009 77.2174L206.534 70.9817L206.518 83.4826L195.009 77.2174Z" fill="#BDBDBD"/>
<path d="M88 67.5L109.543 55.8087V79.1913L88 67.5Z" fill="#BDBDBD"/>
<path d="M175.298 79L146.574 94.5885V63.4115L175.298 79Z" fill="#BDBDBD"/>
<path d="M209 63.39L181.25 78.4502V48.3298L209 63.39Z" fill="#D9D9D9"/>
<path d="M213 75.22L232.5 64.6372V85.8028L213 75.22Z" fill="#D9D9D9"/>
<path d="M94 32.8L124 16.5187V49.0813L94 32.8Z" fill="#D9D9D9"/>
<path d="M199 53.69L219.25 42.7001V64.6799L199 53.69Z" fill="#DB3A2E"/>
<path d="M264.723 73.3646L275.974 70.4947L272.989 81.5186L264.723 73.3646Z" fill="#D9D9D9"/>
<path d="M285.319 79.1702L278.665 82.7816V75.5587L285.319 79.1702Z" fill="#DB3A2E"/>
<path d="M292.255 80.6702L286.399 83.8486V77.4917L292.255 80.6702Z" fill="#BDBDBD"/>
<path d="M251.528 65.9699L259.097 66.1627L255.491 72.4212L251.528 65.9699Z" fill="#D9D9D9"/>
<path d="M248 81.11L238.25 86.4014V75.8186L248 81.11Z" fill="#BDBDBD"/>
<path d="M268 82.11L258.25 87.4014V76.8186L268 82.11Z" fill="#D9D9D9"/>
<path d="M129.25 55.7455L110.524 45.5828L129.25 35.4201V55.7455Z" stroke="#F54D42" stroke-width="0.5"/>
<path d="M149 47.69L169.25 36.7001V58.6799L149 47.69Z" fill="#D9D9D9"/>
<path d="M13 46.5L50.5 26.1484V66.8516L13 46.5Z" fill="#BDBDBD"/>
<path d="M50 23.5L12.5 43.8516L12.5 3.1484L50 23.5Z" fill="#D9D9D9"/>
<path d="M102 57.5L64.5 77.8516V37.1484L102 57.5Z" fill="#D9D9D9"/>
<path d="M87 90.1L64.5 102.311V77.889L87 90.1Z" fill="#DB3A2E"/>
<path d="M162.25 68.7455L143.524 58.5828L162.25 48.4201V68.7455Z" stroke="#F54D42" stroke-width="0.5"/>
<path d="M284.964 78.0234L278.624 74.5828L284.964 71.1422V78.0234Z" stroke="#F54D42" stroke-width="0.169275"/>
</svg>
