<svg width="42" height="47" viewBox="0 0 42 47" fill="none" xmlns="http://www.w3.org/2000/svg">
<path d="M29.3185 29.4309L20.5615 38.1879L11.8045 29.4309C5.24135 29.7155 0 35.0853 0 41.7128V42.594C0 45.0265 1.97354 47 4.40603 47H36.717C39.1495 47 41.123 45.0265 41.123 42.594V41.7128C41.123 35.0853 35.8816 29.7155 29.3185 29.4309ZM1.24838 7.32733L1.83585 7.46502V12.8257C1.1933 13.2112 0.734339 13.8813 0.734339 14.6891C0.734339 15.4601 1.15658 16.1027 1.75323 16.4974L0.321273 22.2161C0.165226 22.8494 0.514037 23.5011 1.0189 23.5011H4.85582C5.36068 23.5011 5.70949 22.8494 5.55344 22.2161L4.12148 16.4974C4.71813 16.1027 5.14037 15.4601 5.14037 14.6891C5.14037 13.8813 4.68141 13.2112 4.03887 12.8257V7.99741L10.0972 9.45691C9.30775 11.0357 8.81207 12.7982 8.81207 14.6891C8.81207 21.1788 14.0718 26.4385 20.5615 26.4385C27.0512 26.4385 32.3109 21.1788 32.3109 14.6891C32.3109 12.7982 31.8244 11.0357 31.0258 9.45691L39.8654 7.32733C41.5361 6.92344 41.5361 4.83975 39.8654 4.43587L22.3882 0.213417C21.1949 -0.0711391 19.9373 -0.0711391 18.744 0.213417L1.24838 4.42669C-0.413066 4.83057 -0.413066 6.92344 1.24838 7.32733Z" fill="url(#paint0_linear_260_248)"/>
<defs>
<linearGradient id="paint0_linear_260_248" x1="20.5615" y1="0" x2="20.5615" y2="47" gradientUnits="userSpaceOnUse">
<stop stop-color="#FF4336"/>
<stop offset="0.0001" stop-color="#E64136"/>
<stop offset="0.9999"/>
<stop offset="1" stop-color="#660E0E"/>
</linearGradient>
</defs>
</svg>
